<svg xmlns="http://www.w3.org/2000/svg" xmlns:xlink="http://www.w3.org/1999/xlink" fill="none" version="1.1" width="135.5" height="308.5" viewBox="0 0 135.5 308.5">
  <linearGradient id="grad4" x1="50%" y1="0%" x2="100%" y2="0%">
    <stop offset="1%" style="stop-color:#2E3038;stop-opacity:1"/>
    <stop offset="56%" style="stop-color:#CECECE;stop-opacity:1"/>
    <stop offset="100%" style="stop-color:#FF7722;stop-opacity:1"/>
  </linearGradient>
  <g>
    <path d="M55.75,307L0.75,307L0.75,308.5L55.75,308.5Q58.3436,308.5,60.7131,307.498Q63.0014,306.53,64.7656,304.766Q66.5299,303.001,67.4977,300.713Q68.5,298.344,68.5,295.75L68.5,12.75Q68.5,10.46065,69.3838,8.371220000000001Q70.2376,6.35246,71.795,4.79505Q73.3524,3.23766,75.3712,2.38377Q77.4607,1.5000010000000001,79.75,1.5000010000000001L134.75,1.5L134.75,0L79.75,0.0000010000000000287557Q77.1565,0.0000010000000000287557,74.7869,1.002267Q72.4987,1.97011,70.7344,3.73439Q68.9701,5.49868,68.0023,7.7869Q67,10.15649,67,12.75L67,295.75Q67,298.039,66.1162,300.129Q65.2624,302.148,63.705,303.705Q62.1477,305.262,60.1288,306.116Q58.0393,307,55.75,307Z" 
      fill-rule="evenodd"
      fill="url(#grad4)" 
      fill-opacity="1"
    />
  </g>
 </svg>