<svg xmlns="http://www.w3.org/2000/svg" xmlns:xlink="http://www.w3.org/1999/xlink" fill="none" version="1.1" width="100.5" height="231.1875" viewBox="0 0 100.5 231.1875"><defs><linearGradient x1="0.5" y1="0" x2="0.5" y2="1" id="master_svg0_3713_14901"><stop offset="1.4285714365541935%" stop-color="#AAAAAA" stop-opacity="0"/><stop offset="56.42856955528259%" stop-color="#CECECE" stop-opacity="1"/><stop offset="100%" stop-color="#FF7722" stop-opacity="1"/></linearGradient></defs><g><g><path d="M41.25,230.4375L0,230.4375L0,231.1875L41.25,231.1875Q43.1572,231.1875,44.8993,230.4505Q46.5818,229.7395,47.8791,228.4415Q49.1765,227.1445,49.8881,225.4615Q50.625,223.7195,50.625,221.8125L50.625,9.5625Q50.625,7.80748,51.3026,6.20538Q51.9573,4.65762,53.1512,3.4637Q54.3451,2.2698,55.8929,1.61514Q57.495,0.9375,59.25,0.9375L100.5,0.9375L100.5,0.1875L59.25,0.1875Q57.3429,0.1875,55.6007,0.924388Q53.9182,1.63603,52.6209,2.93337Q51.3235,4.230729999999999,50.6119,5.91321Q49.875,7.65539,49.875,9.5625L49.875,221.8125Q49.875,223.5675,49.1974,225.1695Q48.5427,226.7175,47.3488,227.9115Q46.155,229.1055,44.6071,229.7595Q43.0051,230.4375,41.25,230.4375Z" fill-rule="evenodd" fill="#2E3038" fill-opacity="1"/></g><g transform="matrix(0,1,1,0,72.1875,-72.1875)"><path d="M73.3125,0.5625L73.3125,27.5625L72.1875,27.5625L72.1875,0.5625L73.3125,0.5625Z" fill-rule="evenodd" fill="url(#master_svg0_3713_14901)" fill-opacity="1"/></g></g></svg>