<svg xmlns="http://www.w3.org/2000/svg" xmlns:xlink="http://www.w3.org/1999/xlink" fill="none" version="1.1" width="102" height="230.9375" viewBox="0 0 102 230.9375"><defs><linearGradient x1="0.5" y1="0" x2="0.5" y2="1" id="master_svg0_3713_14901"><stop offset="1.4285714365541935%" stop-color="#AAAAAA" stop-opacity="0"/><stop offset="56.42856955528259%" stop-color="#CECECE" stop-opacity="1"/><stop offset="100%" stop-color="#FF7722" stop-opacity="1"/></linearGradient></defs><g><g transform="matrix(-1,0,0,1,204,0)"><path d="M144,230L102,230L102,230.75L144,230.75Q145.9072,230.75,147.64929999999998,230.013Q149.3318,229.301,150.6291,228.004Q151.9265,226.707,152.6381,225.024Q153.375,223.282,153.375,221.375L153.375,9.375Q153.375,7.61998,154.05259999999998,6.01788Q154.7073,4.47012,155.90120000000002,3.2762Q157.0951,2.0823,158.6429,1.42764Q160.245,0.7499990000000001,162,0.7499990000000001L204,0.75L204,0L162,-9.999999999732445e-7Q160.0929,-9.999999999732445e-7,158.35070000000002,0.7368870000000001Q156.6682,1.44853,155.3709,2.74587Q154.0735,4.043229999999999,153.3619,5.72571Q152.625,7.46789,152.625,9.375L152.625,221.375Q152.625,223.13,151.94740000000002,224.732Q151.2927,226.28,150.09879999999998,227.474Q148.905,228.668,147.3571,229.322Q145.7551,230,144,230Z" fill-rule="evenodd" fill="#2E3038" fill-opacity="1"/></g><g transform="matrix(0,1,1,0,-155.375,155.375)"><path d="M75.5625,230.375L75.5625,257.375L74.4375,257.375L74.4375,230.375L75.5625,230.375Z" fill-rule="evenodd" fill="url(#master_svg0_3713_14901)" fill-opacity="1"/></g></g></svg>