<svg xmlns="http://www.w3.org/2000/svg" xmlns:xlink="http://www.w3.org/1999/xlink" fill="none" version="1.1" width="135.5" height="308.5" viewBox="0 0 135.5 308.5">
  <linearGradient id="grad6" x1="50%" y1="0%" x2="0%" y2="0%">
    <stop offset="1%" style="stop-color:#2E3038;stop-opacity:1"/>
    <stop offset="56%" style="stop-color:#CECECE;stop-opacity:1"/>
    <stop offset="100%" style="stop-color:#FF7722;stop-opacity:1"/>
  </linearGradient>
<g transform="matrix(-1,0,0,1,269.5,0)">
  <path d="M189.75,307L134.75,307L134.75,308.5L189.75,308.5Q192.3436,308.5,194.7131,307.498Q197.0014,306.53,198.7656,304.766Q200.5299,303.001,201.4977,300.713Q202.5,298.344,202.5,295.75L202.5,12.75Q202.5,10.46065,203.3838,8.371220000000001Q204.2376,6.35246,205.79500000000002,4.79505Q207.3524,3.23766,209.3712,2.38377Q211.4607,1.5000010000000001,213.75,1.5000010000000001L268.75,1.5L268.75,0L213.75,0.0000010000000000287557Q211.1565,0.0000010000000000287557,208.7869,1.002267Q206.49869999999999,1.97011,204.7344,3.73439Q202.9701,5.49868,202.0023,7.7869Q201,10.15649,201,12.75L201,295.75Q201,298.039,200.1162,300.129Q199.2624,302.148,197.70499999999998,303.705Q196.1477,305.262,194.1288,306.116Q192.0393,307,189.75,307Z" 
    fill-rule="evenodd" 
    fill="url(#grad6)" 
    fill-opacity="1"
  />
</g>
</svg>