<svg xmlns="http://www.w3.org/2000/svg" xmlns:xlink="http://www.w3.org/1999/xlink" fill="none" version="1.1" width="153.9375" height="102" viewBox="0 0 153.9375 102"><defs><linearGradient x1="0.5" y1="0" x2="0.5" y2="1" id="master_svg0_3713_14901"><stop offset="1.4285714365541935%" stop-color="#AAAAAA" stop-opacity="0"/><stop offset="56.42856955528259%" stop-color="#CECECE" stop-opacity="1"/><stop offset="100%" stop-color="#FF7722" stop-opacity="1"/></linearGradient></defs><g><g><path d="M153.9375,42L153.9375,0L153.1875,0L153.1875,42Q153.1875,43.7551,152.5095,45.3571Q151.8555,46.905,150.6615,48.0988Q149.4675,49.2927,147.9195,49.9474Q146.3175,50.625,144.5625,50.625L9.5625,50.625Q7.65539,50.625,5.91321,51.3619Q4.230729999999999,52.0735,2.93337,53.3709Q1.63603,54.6682,0.924388,56.3507Q0.1875,58.0929,0.1875,60L0.1875,102L0.9375,102L0.9375,60Q0.9375,58.245,1.61514,56.6429Q2.2698,55.0951,3.4637,53.9012Q4.65762,52.7073,6.20538,52.0526Q7.80747,51.375,9.5625,51.375L144.5625,51.375Q146.4695,51.375,148.2115,50.6381Q149.8945,49.9265,151.1915,48.6291Q152.4885,47.3318,153.2005,45.6493Q153.9375,43.9072,153.9375,42Z" fill-rule="evenodd" fill="#2E3038" fill-opacity="1"/></g><g><path d="M1.125,74.25L1.125,101.25L0,101.25L0,74.25L1.125,74.25Z" fill-rule="evenodd" fill="url(#master_svg0_3713_14901)" fill-opacity="1"/></g></g></svg>