<svg xmlns="http://www.w3.org/2000/svg" xmlns:xlink="http://www.w3.org/1999/xlink" fill="none" version="1.1" width="205.5" height="137.5" viewBox="0 0 205.5 137.5">
  <linearGradient id="grad2" x1="100%" y1="50%" x2="100%" y2="100%">
    <stop offset="1%" style="stop-color:#2E3038;stop-opacity:1"/>
    <stop offset="56%" style="stop-color:#CECECE;stop-opacity:1"/>
    <stop offset="100%" style="stop-color:#FF7722;stop-opacity:1"/>
  </linearGradient>
  <g>
    <path d="M205.5,56.75L205.5,0.75L204,0.75L204,56.75Q204,59.0393,203.116,61.1288Q202.262,63.1475,200.705,64.705Q199.148,66.2624,197.129,67.1162Q195.039,68,192.75,68L12.75,68Q10.15649,68,7.78689,69.0023Q5.49868,69.9701,3.73439,71.7344Q1.97011,73.4987,1.002266,75.7869Q-0.0000010000000000287557,78.1565,-0.0000010000000000287557,80.75L0,136.75L1.5,136.75L1.4999989999999999,80.75Q1.4999989999999999,78.4607,2.38377,76.3712Q3.23766,74.3524,4.79505,72.795Q6.35246,71.2376,8.371220000000001,70.3838Q10.46065,69.5,12.75,69.5L192.75,69.5Q195.344,69.5,197.713,68.4977Q200.001,67.5299,201.766,65.7656Q203.53,64.0013,204.498,61.7131Q205.5,59.3434,205.5,56.75Z" 
      fill-rule="evenodd" 
      fill="url(#grad2)" 
      fill-opacity="1"
    />
  </g>
</svg>