<svg xmlns="http://www.w3.org/2000/svg" xmlns:xlink="http://www.w3.org/1999/xlink" fill="none" version="1.1" width="153.9375" height="102" viewBox="0 0 153.9375 102"><defs><linearGradient x1="0.5" y1="0" x2="0.5" y2="1" id="master_svg0_3713_14901"><stop offset="1.4285714365541935%" stop-color="#AAAAAA" stop-opacity="0"/><stop offset="56.42856955528259%" stop-color="#CECECE" stop-opacity="1"/><stop offset="100%" stop-color="#FF7722" stop-opacity="1"/></linearGradient></defs><g><g transform="matrix(-1,0,0,1,306.75,0)"><path d="M306.75,42L306.75,0L306,0L306,42Q306,43.7551,305.322,45.3571Q304.668,46.905,303.474,48.0988Q302.28,49.2927,300.73199999999997,49.9474Q299.13,50.625,297.375,50.625L162.375,50.625Q160.46789,50.625,158.72571,51.3619Q157.04323,52.0735,155.74587,53.3709Q154.44853,54.6682,153.736888,56.3507Q153,58.0929,153,60L153,102L153.75,102L153.75,60Q153.75,58.245,154.42764,56.6429Q155.0823,55.0951,156.2762,53.9012Q157.47012,52.7073,159.01788,52.0526Q160.61997,51.375,162.375,51.375L297.375,51.375Q299.28200000000004,51.375,301.024,50.6381Q302.707,49.9265,304.004,48.6291Q305.301,47.3318,306.01300000000003,45.6493Q306.75,43.9072,306.75,42Z" fill-rule="evenodd" fill="#2E3038" fill-opacity="1"/></g><g><path d="M153.9375,74.25L153.9375,101.25L152.8125,101.25L152.8125,74.25L153.9375,74.25Z" fill-rule="evenodd" fill="url(#master_svg0_3713_14901)" fill-opacity="1"/></g></g></svg>