<svg xmlns="http://www.w3.org/2000/svg" xmlns:xlink="http://www.w3.org/1999/xlink"
  fill="none"
  version="1.1"
  width="205.5"
  height="137.5"
  viewBox="0 0 205.5 137.5">
  <linearGradient id="grad1" x1="100%" y1="50%" x2="100%" y2="100%">
    <stop offset="1%" style="stop-color:#2E3038;stop-opacity:1"/>
    <stop offset="56%" style="stop-color:#CECECE;stop-opacity:1"/>
    <stop offset="100%" style="stop-color:#FF7722;stop-opacity:1"/>
  </linearGradient>
  <g transform="matrix(-1,0,0,1,409.5,0)">
    <path d="M409.5,56.75L409.5,0.75L408,0.75L408,56.75Q408,59.0393,407.116,61.1288Q406.262,63.1475,404.70500000000004,64.705Q403.148,66.2624,401.129,67.1162Q399.039,68,396.75,68L216.75,68Q214.15649,68,211.78689,69.0023Q209.49868,69.9701,207.73439,71.7344Q205.97011,73.4987,205.002266,75.7869Q203.999999,78.1565,203.999999,80.75L204,136.75L205.5,136.75L205.499999,80.75Q205.499999,78.4607,206.38377,76.3712Q207.23766,74.3524,208.79505,72.795Q210.35246,71.2376,212.37122,70.3838Q214.46065,69.5,216.75,69.5L396.75,69.5Q399.344,69.5,401.71299999999997,68.4977Q404.001,67.5299,405.76599999999996,65.7656Q407.53,64.0013,408.498,61.7131Q409.5,59.3434,409.5,56.75Z" 
      fill-rule="evenodd" 
      fill="url(#grad1)" 
      fill-opacity="1"
    />
  </g>
</svg>