<svg xmlns="http://www.w3.org/2000/svg" xmlns:xlink="http://www.w3.org/1999/xlink" fill="none" version="1.1" width="135.5" height="64.5" viewBox="0 0 135.5 64.5">
  <linearGradient id="grad3" x1="50%" y1="0%" x2="0%" y2="0%">
    <stop offset="1%" style="stop-color:#2E3038;stop-opacity:1"/>
    <stop offset="56%" style="stop-color:#CECECE;stop-opacity:1"/>
    <stop offset="100%" style="stop-color:#FF7722;stop-opacity:1"/>
  </linearGradient>
  <g transform="matrix(-1,0,0,1,269.5,0)">
    <path d="M212.75,1.5L268.75,1.5L268.75,0L212.75,0Q210.1565,0,207.7869,1.002266Q205.49869999999999,1.97011,203.7344,3.73439Q201.9701,5.49868,201.0023,7.7869Q200,10.15649,200,12.75L200,51.75Q200,54.0393,199.1162,56.1288Q198.2624,58.1476,196.70499999999998,59.705Q195.1475,61.2624,193.1288,62.1162Q191.0393,63,188.75,63L134.75,63L134.75,64.5L188.75,64.5Q191.3435,64.5,193.7131,63.4977Q196.00130000000001,62.5299,197.7656,60.7656Q199.5299,59.0013,200.4977,56.7131Q201.5,54.3435,201.5,51.75L201.5,12.75Q201.5,10.46066,202.3838,8.371220000000001Q203.2376,6.35246,204.79500000000002,4.79505Q206.3524,3.23766,208.3712,2.38377Q210.4607,1.5,212.75,1.5Z" 
    fill-rule="evenodd" 
    fill="url(#grad3)" 
    fill-opacity="1"
    />
  </g>
</svg>