<svg xmlns="http://www.w3.org/2000/svg" xmlns:xlink="http://www.w3.org/1999/xlink" fill="none" version="1.1" width="100.5" height="48.1875" viewBox="0 0 100.5 48.1875"><defs><linearGradient x1="0.5" y1="0" x2="0.5" y2="1" id="master_svg0_3713_14901"><stop offset="1.4285714365541935%" stop-color="#AAAAAA" stop-opacity="0"/><stop offset="56.42856955528259%" stop-color="#CECECE" stop-opacity="1"/><stop offset="100%" stop-color="#FF7722" stop-opacity="1"/></linearGradient></defs><g><g transform="matrix(-1,0,0,1,201,0)"><path d="M159,0.75L201,0.75L201,0L159,0Q157.0929,0,155.35070000000002,0.736888Q153.6682,1.44853,152.3709,2.74587Q151.0735,4.043229999999999,150.3619,5.72571Q149.625,7.46789,149.625,9.375L149.625,38.625Q149.625,40.38,148.94740000000002,41.9821Q148.2927,43.5299,147.09879999999998,44.7238Q145.9049,45.9177,144.3571,46.5724Q142.755,47.25,141,47.25L100.5,47.25L100.5,48L141,48Q142.9071,48,144.64929999999998,47.2631Q146.3318,46.5515,147.6291,45.2541Q148.9265,43.9568,149.6381,42.2743Q150.375,40.5321,150.375,38.625L150.375,9.375Q150.375,7.61997,151.05259999999998,6.01788Q151.7073,4.47012,152.90120000000002,3.2762Q154.0951,2.0823,155.6429,1.42764Q157.245,0.75,159,0.75Z" fill-rule="evenodd" fill="#2E3038" fill-opacity="1"/></g><g transform="matrix(0,1,1,0,25.125,-25.125)"><path d="M73.3125,47.625L73.3125,74.625L72.1875,74.625L72.1875,47.625L73.3125,47.625Z" fill-rule="evenodd" fill="url(#master_svg0_3713_14901)" fill-opacity="1"/></g></g></svg>