<svg xmlns="http://www.w3.org/2000/svg" xmlns:xlink="http://www.w3.org/1999/xlink" fill="none" version="1.1" width="135.5" height="64.5" viewBox="0 0 135.5 64.5">
  <linearGradient id="grad5" x1="50%" y1="0%" x2="0%" y2="0%">
    <stop offset="1%" style="stop-color:#2E3038;stop-opacity:1"/>
    <stop offset="56%" style="stop-color:#CECECE;stop-opacity:1"/>
    <stop offset="100%" style="stop-color:#FF7722;stop-opacity:1"/>
  </linearGradient>
<g>
  <path d="M78.75,1.5L134.75,1.5L134.75,0L78.75,0Q76.1565,0,73.7869,1.002266Q71.4987,1.97011,69.7344,3.73439Q67.9701,5.49868,67.0023,7.7869Q66,10.15649,66,12.75L66,51.75Q66,54.0393,65.1162,56.1288Q64.2624,58.1476,62.705,59.705Q61.1475,61.2624,59.1288,62.1162Q57.0393,63,54.75,63L0.75,63L0.75,64.5L54.75,64.5Q57.3435,64.5,59.7131,63.4977Q62.0013,62.5299,63.7656,60.7656Q65.5299,59.0013,66.4977,56.7131Q67.5,54.3435,67.5,51.75L67.5,12.75Q67.5,10.46066,68.3838,8.371220000000001Q69.2376,6.35246,70.795,4.79505Q72.3524,3.23766,74.3712,2.38377Q76.4607,1.5,78.75,1.5Z" 
    fill-rule="evenodd" 
    fill="url(#grad5)" 
    fill-opacity="1"
  />
</g>
</svg>