<svg xmlns="http://www.w3.org/2000/svg" xmlns:xlink="http://www.w3.org/1999/xlink" fill="none" version="1.1" width="102" height="48.9375" viewBox="0 0 102 48.9375"><defs><linearGradient x1="0.5" y1="0" x2="0.5" y2="1" id="master_svg0_3713_14901"><stop offset="1.4285714365541935%" stop-color="#AAAAAA" stop-opacity="0"/><stop offset="56.42856955528259%" stop-color="#CECECE" stop-opacity="1"/><stop offset="100%" stop-color="#FF7722" stop-opacity="1"/></linearGradient></defs><g><g><path d="M59.2388,0.75L102,0.75L102,0L59.2388,0Q57.3317,0,55.5895,0.736888Q53.907,1.44853,52.6097,2.74587Q51.3123,4.043229999999999,50.6007,5.72571Q49.8638,7.46789,49.8638,9.375L49.8638,39.375Q49.8638,41.13,49.1862,42.7321Q48.5315,44.2799,47.3376,45.4738Q46.1437,46.6677,44.5959,47.3224Q42.9938,48,41.2388,48L0,48L0,48.75L41.2388,48.75Q43.1459,48.75,44.8881,48.0131Q46.5706,47.3015,47.8679,46.0041Q49.1653,44.7068,49.8769,43.0243Q50.6138,41.2821,50.6138,39.375L50.6138,9.375Q50.6138,7.61997,51.2914,6.01788Q51.9461,4.47012,53.14,3.2762Q54.3339,2.0823,55.8817,1.42764Q57.4838,0.75,59.2388,0.75Z" fill-rule="evenodd" fill="#2E3038" fill-opacity="1"/></g><g transform="matrix(0,1,-1,0,75.375,21.375)"><path d="M27.5625,48.375L27.5625,75.375L26.4375,75.375L26.4375,48.375L27.5625,48.375Z" fill-rule="evenodd" fill="url(#master_svg0_3713_14901)" fill-opacity="1"/></g></g></svg>