<svg xmlns="http://www.w3.org/2000/svg" xmlns:xlink="http://www.w3.org/1999/xlink" fill="none" version="1.1" width="6" height="10" viewBox="0 0 25.499752044677734 36"><g><path d="M13.839,30.627C14.2695,30.6315,14.7015,30.66,15.129,30.711C15.453,30.7485,15.4485,30.798,15.3915,31.083C15.0285,32.874,14.286,34.467,13.038,35.793L12.8415,36L12.5865,36C12.4365,35.8275,12.282,35.658,12.1335,35.484C11.5815,34.8345,11.178,34.0905,10.824,33.3165C10.5615,32.7405,10.3275,32.1525,10.2015,31.527C10.146,31.251,10.1085,30.9705,10.0635,30.6915C10.0605,30.672,10.0635,30.6495,10.0635,30.624L10.1535,30.6195C11.3835,30.6195,12.612,30.615,13.8405,30.627L13.839,30.627ZM12.729,8.80278e-7L12.882,0.184501C13.869,1.3185,14.691,2.5755,15.507,3.8385C16.347,5.1375,17.169,6.447,17.8905,7.818C19.2585,10.4235,20.3175,13.152,20.949,16.047C21.1395,16.9245,21.282,17.811,21.3855,18.705C21.516,19.818,21.564,20.9355,21.5265,22.0545C21.4575,24.1905,21.1605,26.289,20.4435,28.305C20.1915,29.013,19.8735,29.694,19.5795,30.405L18.462,29.7225C18.1425,29.5275,17.8245,29.3325,17.502,29.1405C17.4542,29.1123,17.4,29.0968,17.3445,29.0955C15.513,29.0925,13.6815,29.091,11.85,29.0955C11.01,29.1,10.17,29.106,9.3315,29.1345C8.835,29.151,8.3385,29.2095,7.842,29.262C7.72752,29.2836,7.61906,29.3297,7.524,29.397C6.9855,29.7345,6.4515,30.0765,5.91,30.4215C5.898,30.4005,5.889,30.3915,5.8845,30.378C5.5425,29.493,5.178,28.614,4.866,27.717C4.536,26.769,4.338,25.785,4.188,24.7905C3.99604,23.5261,3.92172,22.2466,3.966,20.9685C3.996,20.1525,4.0635,19.338,4.152,18.5265C4.3215,16.9665,4.665,15.441,5.097,13.9365C5.6595,11.979,6.465,10.1265,7.38,8.322C8.595,5.9235,9.9705,3.627,11.577,1.482C11.934,1.002,12.306,0.5355,12.672,0.063C12.687,0.0435,12.7035,0.0255,12.7275,0L12.729,8.80278e-7ZM2.7165,25.074C2.6625,26.928,3.1575,28.617,4.014,30.2235L3.8865,30.2235C2.8635,30.2235,1.8405,30.2235,0.816,30.2175C0.622501,30.216,0.426,30.201,0.2355,30.171C0.153,30.1575,0.0780003,30.09,0,30.048L0,29.9385C0.0510001,29.691,0.108,29.4435,0.15,29.196C0.2115,28.851,0.261,28.5015,0.318,28.155C0.378,27.792,0.525,27.465,0.7605,27.192C1.11,26.7825,1.4745,26.3865,1.839,25.9905C2.097,25.71,2.3625,25.437,2.625,25.1625L2.7165,25.0725L2.7165,25.074ZM23.064,25.4865C23.1915,25.5795,23.3115,25.6815,23.4255,25.7895C23.7405,26.0895,24.0435,26.3985,24.36,26.6955C24.8205,27.1275,25.08,27.66,25.1865,28.2855C25.281,28.8465,25.3935,29.4045,25.494,29.964C25.506,30.033,25.4955,30.1065,25.4955,30.201L21.5355,30.201L21.885,29.388C22.2915,28.455,22.545,27.4755,22.725,26.475C22.7775,26.1795,22.809,25.881,22.854,25.5825C22.8765,25.422,22.935,25.392,23.064,25.4865ZM12.528,3.1215C12.3117,3.34214,12.1112,3.57772,11.928,3.8265C11.145,4.9065,10.458,6.0555,9.7875,7.215C7.833,10.6035,6.5115,14.2215,6.0075,18.138C5.895,18.999,5.8215,19.863,5.823,20.733C5.8245,21.39,5.838,22.0485,5.889,22.7025C5.934,23.3085,6.0195,23.913,6.1125,24.5145C6.2475,25.395,6.5025,26.244,6.7455,27.0975C6.7725,27.195,6.813,27.222,6.9105,27.222L9.834,27.2205L18.516,27.2205C18.726,27.2205,18.7215,27.219,18.786,27.0195C19.4205,25.0455,19.6815,23.0145,19.659,20.9415C19.6487,19.9539,19.5811,18.9678,19.4565,17.988C19.1108,15.1554,18.2983,12.3996,17.052,9.8325C16.1205,7.8885,15.0795,6.0105,13.848,4.2465C13.581,3.867,13.293,3.501,13.0005,3.1425C12.8295,2.934,12.714,2.9295,12.528,3.1215ZM17.706,14.8605C17.8035,15.87,17.0325,16.6935,16.0425,16.632C15.9135,16.6245,15.7875,16.578,15.66,16.5555C15.6255,16.548,15.576,16.5495,15.555,16.5705C15.3495,16.7745,15.15,16.983,14.9415,17.196C15.4185,17.8365,15.6495,18.555,15.6165,19.353C15.5805,20.148,15.2925,20.8395,14.736,21.4665C14.7735,21.486,14.8155,21.4965,14.8425,21.525C15.0435,21.72,15.243,21.915,15.438,22.116C15.4935,22.173,15.543,22.179,15.615,22.1595C16.728,21.852,17.8515,22.515,18.1575,23.655C18.4965,24.9195,17.6205,26.2095,16.347,26.3205C15.2216,26.4185,14.2244,25.5986,14.103,24.4755C14.0385,23.952,14.148,23.463,14.439,23.0235C14.4885,22.95,14.481,22.9125,14.4195,22.854C14.2095,22.653,14.0055,22.4475,13.8,22.2405C13.761,22.2015,13.731,22.188,13.6725,22.2105C12.42,22.695,11.286,22.491,10.275,21.585L10.2375,21.561C10.0515,21.7515,9.8625,21.9405,9.6825,22.14C9.65249,22.173,9.6705,22.257,9.675,22.3155C9.71528,22.6782,9.5818,23.0386,9.315,23.2875C8.949,23.6325,8.52,23.715,8.064,23.5185C7.6095,23.3205,7.365,22.9485,7.356,22.4385C7.338,21.5955,8.151,21.0075,8.9205,21.303C9.003,21.3345,9.0525,21.327,9.1125,21.261C9.2625,21.096,9.4215,20.94,9.5775,20.781C9.6135,20.7465,9.63,20.718,9.606,20.661C9.042,19.392,9.1815,18.2085,10.0185,17.109C10.0245,17.1015,10.0275,17.091,10.0365,17.076L9.984,17.013C9.7305,16.7535,9.4785,16.4925,9.222,16.236C9.18238,16.199,9.13067,16.1777,9.0765,16.176C8.56553,16.1854,8.13351,15.7997,8.085,15.291C8.03436,14.8021,8.35283,14.351,8.8305,14.235C9.501,14.073,10.128,14.7075,9.9705,15.3945C9.948,15.4905,9.969,15.546,10.0335,15.6105C10.2945,15.8715,10.551,16.1385,10.8195,16.4115C11.118,16.2345,11.43,16.1025,11.7645,16.0305C12.5336,15.854,13.341,15.9808,14.019,16.3845C14.0955,16.4295,14.139,16.425,14.199,16.3605C14.361,16.1835,14.5305,16.0125,14.7015,15.8445C14.7525,15.7935,14.7615,15.753,14.7315,15.684C14.3355,14.739,14.859,13.692,15.8385,13.47C16.728,13.269,17.616,13.9305,17.706,14.8605ZM12.444,16.656C11.067,16.656,9.9495,17.799,9.9495,19.209C9.9495,20.616,11.073,21.7665,12.4455,21.7665C13.818,21.7665,14.9415,20.6145,14.94,19.209C14.9385,17.7975,13.8225,16.656,12.444,16.656ZM11.2245,18.9435C11.445,18.945,11.622,19.125,11.622,19.35C11.6248,19.5706,11.4481,19.7517,11.2275,19.7541C11.0069,19.7566,10.8261,19.5796,10.824,19.359C10.8164,19.1323,10.9977,18.9442,11.2245,18.9435ZM12.3885,18.9435C12.6104,18.9468,12.7883,19.1281,12.7875,19.35C12.789,19.5735,12.612,19.755,12.3915,19.758C12.1692,19.7623,11.9876,19.5814,11.991,19.359C11.9807,19.1325,12.1617,18.9433,12.3885,18.9435ZM13.5525,18.9435C13.7745,18.9435,13.9485,19.1235,13.947,19.353C13.947,19.584,13.7745,19.758,13.5495,19.758C13.3259,19.759,13.1465,19.5735,13.155,19.35C13.155,19.122,13.3305,18.942,13.5525,18.9435Z" fill="#FF5700" fill-opacity="1"/></g></svg>